<?xml version="1.0" standalone="no"?>
<!DOCTYPE svg PUBLIC "-//W3C//DTD SVG 1.1//EN" "http://www.w3.org/Graphics/SVG/1.1/DTD/svg11.dtd">
<svg width="5cm" height="4cm" version="1.1" xmlns="http://www.w3.org/2000/svg">
    <symbol id="icon-box" viewBox="0 0 18 18">
        <title>box</title>
        <path class="path1" d="M14 2c0-0.552-0.448-1-1-1h-8c-0.552 0-1 0.448-1 1l-4 7v7c0 0.552 0.448 1 1 1h16c0.552 0 1-0.448 1-1v-7l-4-7zM5.732 3h6.535l2.857 5h-3.625c-0.276 0-0.5 0.224-0.5 0.5v0.411c0 1.044-0.761 1.978-1.8 2.079-1.192 0.116-2.2-0.822-2.2-1.99v-0.5c0-0.276-0.224-0.5-0.5-0.5h-3.625l2.857-5zM16 14.5c0 0.276-0.224 0.5-0.5 0.5h-13c-0.276 0-0.5-0.224-0.5-0.5v-4.5h3.131c0.445 1.724 2.006 3 3.869 3s3.424-1.276 3.869-3h3.131v4.5z"></path>
    </symbol>
    <symbol id="icon-write" viewBox="0 0 18 18">
        <title>write</title>
        <path class="path1" d="M16.001 11c-0.553 0-1 0.448-1 1v2.5c0 0.276-0.224 0.5-0.5 0.5h-11.002c-0.276 0-0.5-0.224-0.5-0.5v-11c0-0.276 0.224-0.5 0.5-0.5h2.5c0.553 0 1-0.448 1-1s-0.448-1-1-1h-4c-0.553 0-1 0.448-1 1v14c0 0.552 0.448 1 1 1h14.002c0.553 0 1-0.448 1-1v-4c0-0.552-0.447-1-1-1z"></path>
        <path class="path2" d="M13.169 3.403l1.429 1.429-5.948 6.168h-1.65v-1.65l6.169-5.947zM13.182 1c-0.256 0-0.511 0.097-0.706 0.292l-7.476 7.208v4.5h4.501l7.209-7.475c0.39-0.39 0.39-1.021 0-1.411l-2.822-2.822c-0.194-0.195-0.45-0.292-0.705-0.292v0z"></path>
    </symbol>
    <symbol id="icon-clock" viewBox="0 0 18 18">
        <title>clock</title>
        <path class="path1" d="M9 1c-4.418 0-8 3.582-8 8s3.582 8 8 8 8-3.582 8-8-3.582-8-8-8zM9 15c-3.309 0-6-2.692-6-6s2.691-6 6-6 6 2.692 6 6-2.691 6-6 6z"></path>
        <path class="path2" d="M11.010 9h-1.51c-0.276 0-0.5-0.224-0.5-0.5v-1.51c0-0.547-0.443-0.99-0.99-0.99h-0.020c-0.547 0-0.99 0.443-0.99 0.99v3.020c0 0.547 0.443 0.99 0.99 0.99h3.020c0.547 0 0.99-0.443 0.99-0.99v-0.020c0-0.547-0.443-0.99-0.99-0.99z"></path>
    </symbol>
    <symbol id="icon-reply" viewBox="0 0 18 18">
        <title>reply</title>
        <path class="path1" d="M10.996 7.001l-3.979 0.002c-0.006 0-0.012-0.002-0.019-0.002h-1.604l3.317-3.319c0.382-0.382 0.382-1 0-1.382l-0.014-0.014c-0.381-0.381-1-0.381-1.381 0l-4.915 4.918c-0.035 0.026-0.070 0.051-0.101 0.083l-0.005 0.005c-0.001 0.001-0.002 0.002-0.003 0.004l-0.005 0.005c-0.034 0.034-0.061 0.071-0.088 0.109-0.009 0.011-0.020 0.021-0.027 0.033-0.114 0.167-0.171 0.36-0.17 0.554 0 0.002-0 0.003-0 0.005s0 0.003 0 0.004c-0.001 0.194 0.056 0.387 0.17 0.554 0.008 0.012 0.018 0.021 0.026 0.033 0.028 0.037 0.056 0.075 0.089 0.109l0.005 0.005c0.001 0.001 0.002 0.002 0.003 0.003l0.005 0.005c0.031 0.032 0.066 0.057 0.101 0.083l4.915 4.918c0.381 0.381 1 0.381 1.381 0l0.014-0.014c0.382-0.381 0.382-1 0-1.382l-3.317-3.319h1.604c0.007 0 0.013-0.002 0.019-0.002v0.002h3.979c1.654 0 2.999 1.346 2.999 3.001v2.998c0 0.553 0.448 1 1 1s1-0.448 1-1v-2.998c0-2.762-2.237-5.001-4.998-5.001z"></path>
    </symbol>
    <symbol id="icon-reply-all" viewBox="0 0 18 18">
        <title>reply-all</title>
        <path class="path1" d="M2.393 8.001l4.318-4.32c0.381-0.381 0.381-1 0-1.382l-0.014-0.014c-0.381-0.382-1-0.382-1.381 0l-4.917 4.918c-0.034 0.026-0.069 0.051-0.101 0.083l-0.014 0.014c-0.193 0.193-0.287 0.447-0.284 0.7-0.002 0.253 0.091 0.507 0.284 0.7l0.014 0.014c0.032 0.031 0.067 0.056 0.101 0.083l4.917 4.918c0.381 0.382 1 0.382 1.381 0l0.014-0.014c0.381-0.381 0.381-1 0-1.382l-4.318-4.319z"></path>
        <path class="path2" d="M12.996 7.001h-4.604l3.318-3.319c0.381-0.381 0.381-1 0-1.382l-0.014-0.014c-0.381-0.382-1-0.382-1.381 0l-4.917 4.918c-0.034 0.026-0.069 0.051-0.101 0.083l-0.005 0.005c-0.001 0.001-0.002 0.002-0.003 0.004l-0.006 0.005c-0.033 0.034-0.061 0.072-0.088 0.109-0.008 0.011-0.019 0.021-0.027 0.033-0.114 0.166-0.171 0.36-0.17 0.554 0 0.001-0.001 0.003-0.001 0.004s0.001 0.003 0.001 0.004c-0.001 0.194 0.056 0.387 0.17 0.554 0.008 0.011 0.018 0.021 0.026 0.033 0.028 0.037 0.055 0.075 0.089 0.109l0.006 0.005c0.001 0.001 0.002 0.002 0.003 0.003l0.006 0.005c0.031 0.031 0.066 0.056 0.101 0.083l4.917 4.918c0.381 0.382 1 0.382 1.381 0l0.014-0.014c0.381-0.381 0.381-1 0-1.382l-3.318-3.319h4.604c1.654 0 3 1.346 3 3.001v2.998c0 0.552 0.447 1 1 1s1-0.448 1-1v-2.998c0-2.762-2.238-5.001-4.999-5.001z"></path>
    </symbol>
    <symbol id="icon-forward" viewBox="0 0 18 18">
        <title>forward</title>
        <path class="path1" d="M16.711 8.29l-6-5.996c-0.391-0.391-1.026-0.391-1.417 0s-0.391 1.025 0 1.417l4.293 4.29h-11.59c-0.553 0-1.001 0.448-1.001 1s0.448 1 1.001 1h11.59l-4.292 4.29c-0.391 0.391-0.391 1.025 0.001 1.417s1.026 0.391 1.417 0l6-5.997c0.196-0.196 0.294-0.453 0.294-0.71s-0.097-0.514-0.294-0.71z"></path>
    </symbol>
    <symbol id="icon-trash" viewBox="0 0 18 18">
        <title>trash</title>
        <path class="path1" d="M17 5h-4v-3c0-0.552-0.448-1-1-1h-6c-0.552 0-1 0.448-1 1v3h-4c-0.552 0-1 0.448-1 1v1h2v9c0 0.552 0.448 1 1 1h12c0.552 0 1-0.448 1-1v-9h2v-1c0-0.552-0.448-1-1-1zM7 3h4v2h-4v-2zM14 15h-10v-8h10v8z"></path>
        <path class="path2" d="M6.5 13h1c0.276 0 0.5-0.224 0.5-0.5v-3c0-0.276-0.224-0.5-0.5-0.5h-1c-0.276 0-0.5 0.224-0.5 0.5v3c0 0.276 0.224 0.5 0.5 0.5z"></path>
        <path class="path3" d="M10.5 13h1c0.276 0 0.5-0.224 0.5-0.5v-3c0-0.276-0.224-0.5-0.5-0.5h-1c-0.276 0-0.5 0.224-0.5 0.5v3c0 0.276 0.224 0.5 0.5 0.5z"></path>
    </symbol>
</svg>