<svg version="1.1" baseProfile="full" width="300" height="200" xmlns="http://www.w3.org/2000/svg">
    <symbol id="icon-forward" viewBox="0 0 18 18">
        <path d="M16.711 8.29l-6-5.996c-0.391-0.391-1.026-0.391-1.417 0s-0.391 1.025 0 1.417l4.293 4.29h-11.59c-0.553 0-1.001 0.448-1.001 1s0.448 1 1.001 1h11.59l-4.292 4.29c-0.391 0.391-0.391 1.025 0.001 1.417s1.026 0.391 1.417 0l6-5.997c0.196-0.196 0.294-0.453 0.294-0.71s-0.097-0.514-0.294-0.71z"></path>
    </symbol>
    <symbol id="icon-trash" viewBox="0 0 18 18">
        <path d="M17 5h-4v-3c0-0.552-0.448-1-1-1h-6c-0.552 0-1 0.448-1 1v3h-4c-0.552 0-1 0.448-1 1v1h2v9c0 0.552 0.448 1 1 1h12c0.552 0 1-0.448 1-1v-9h2v-1c0-0.552-0.448-1-1-1zM7 3h4v2h-4v-2zM14 15h-10v-8h10v8z"></path>
        <path d="M6.5 13h1c0.276 0 0.5-0.224 0.5-0.5v-3c0-0.276-0.224-0.5-0.5-0.5h-1c-0.276 0-0.5 0.224-0.5 0.5v3c0 0.276 0.224 0.5 0.5 0.5z"></path>
        <path d="M10.5 13h1c0.276 0 0.5-0.224 0.5-0.5v-3c0-0.276-0.224-0.5-0.5-0.5h-1c-0.276 0-0.5 0.224-0.5 0.5v3c0 0.276 0.224 0.5 0.5 0.5z"></path>
    </symbol>
    <symbol id="icon-letter" viewBox="0 0 512 512">
        <path d="M512 96h-448c-17.672 0-32 14.328-32 32v320c0 17.672 14.328 32 32 32h448c17.672 0 32-14.328 32-32v-320c0-17.672-14.328-32-32-32zM467.781 160l-179.781 122.602-179.781-122.602h359.562zM480 400c0 8.836-7.156 16-16 16h-352c-8.844 0-16-7.164-16-16v-171.602l175.906 119.141c4.969 2.977 10.532 4.461 16.094 4.461s11.125-1.484 16.094-4.461l175.906-119.141v171.602z"></path>
    </symbol>
</svg>

